{
  "accessors": [
    {
      "bufferView": 2,
      "componentType": 5126,
      "count": 65532,
      "max": [
        2.133319139480591,
        0.14610490202903748,
        0.07413221895694733
      ],
      "min": [
        0.4768936336040497,
        -0.05597469210624695,
        -0.6732380390167236
      ],
      "type": "VEC3"
    },
    {
      "bufferView": 2,
      "byteOffset": 786384,
      "componentType": 5126,
      "count": 65532,
      "max": [
        0.9998672008514404,
        1.0,
        0.9998675584793091
      ],
      "min": [
        -0.999882698059082,
        -1.0,
        -0.9999853372573853
      ],
      "type": "VEC3"
    },
    {
      "bufferView": 0,
      "componentType": 5125,
      "count": 387156,
      "type": "SCALAR"
    },
    {
      "bufferView": 2,
      "byteOffset": 1572768,
      "componentType": 5126,
      "count": 35636,
      "max": [
        2.016035556793213,
        0.1460999846458435,
        0.07355941832065582
      ],
      "min": [
        -0.3348458409309387,
        -0.05597139894962311,
        -0.7317824363708496
      ],
      "type": "VEC3"
    },
    {
      "bufferView": 2,
      "byteOffset": 2000400,
      "componentType": 5126,
      "count": 35636,
      "max": [
        0.9995695948600769,
        1.0,
        0.999871015548706
      ],
      "min": [
        -0.9999986886978149,
        -1.0,
        -0.9994342923164368
      ],
      "type": "VEC3"
    },
    {
      "bufferView": 0,
      "byteOffset": 1548624,
      "componentType": 5125,
      "count": 207084,
      "type": "SCALAR"
    },
    {
      "bufferView": 2,
      "byteOffset": 2428032,
      "componentType": 5126,
      "count": 2604,
      "max": [
        4.935971260070801,
        0.09229372441768646,
        0.0008156606927514076
      ],
      "min": [
        0.03833605349063873,
        0.0,
        -0.6390701532363892
      ],
      "type": "VEC3"
    },
    {
      "bufferView": 2,
      "byteOffset": 2459280,
      "componentType": 5126,
      "count": 2604,
      "max": [
        1.0,
        1.0,
        1.0
      ],
      "min": [
        -1.0,
        -1.0,
        -1.0
      ],
      "type": "VEC3"
    },
    {
      "bufferView": 3,
      "componentType": 5126,
      "count": 2604,
      "max": [
        1.0,
        0.00019999995129182935,
        1.0,
        -1.0
      ],
      "min": [
        -1.0,
        -1.0,
        -0.32200294733047485,
        -1.0
      ],
      "type": "VEC4"
    },
    {
      "bufferView": 1,
      "componentType": 5126,
      "count": 2604,
      "max": [
        0.9986405968666077,
        1.0
      ],
      "min": [
        -1.344735101049821e-09,
        0.0
      ],
      "type": "VEC2"
    },
    {
      "bufferView": 1,
      "byteOffset": 20832,
      "componentType": 5126,
      "count": 2604,
      "max": [
        0.9986405968666077,
        1.0
      ],
      "min": [
        -1.344735101049821e-09,
        0.0
      ],
      "type": "VEC2"
    },
    {
      "bufferView": 1,
      "byteOffset": 41664,
      "componentType": 5126,
      "count": 2604,
      "max": [
        0.9986405968666077,
        1.0
      ],
      "min": [
        -1.344735101049821e-09,
        0.0
      ],
      "type": "VEC2"
    },
    {
      "bufferView": 1,
      "byteOffset": 62496,
      "componentType": 5126,
      "count": 2604,
      "max": [
        0.9986405968666077,
        1.0
      ],
      "min": [
        -1.344735101049821e-09,
        0.0
      ],
      "type": "VEC2"
    },
    {
      "bufferView": 0,
      "byteOffset": 2376960,
      "componentType": 5125,
      "count": 5232,
      "type": "SCALAR"
    }
  ],
  "asset": {
    "extras": {
      "author": "abhayexe (https://sketchfab.com/abhayexe)",
      "license": "SKETCHFAB Standard (https://sketchfab.com/licenses)",
      "source": "https://sketchfab.com/3d-models/happy-new-year-2026-211caa1f5bad463181124c9f96b5264a",
      "title": "Happy New Year 2026!"
    },
    "generator": "Sketchfab-16.95.0",
    "version": "2.0"
  },
  "bufferViews": [
    {
      "buffer": 0,
      "byteLength": 2397888,
      "name": "floatBufferViews",
      "target": 34963
    },
    {
      "buffer": 0,
      "byteLength": 83328,
      "byteOffset": 2397888,
      "byteStride": 8,
      "name": "floatBufferViews",
      "target": 34962
    },
    {
      "buffer": 0,
      "byteLength": 2490528,
      "byteOffset": 2481216,
      "byteStride": 12,
      "name": "floatBufferViews",
      "target": 34962
    },
    {
      "buffer": 0,
      "byteLength": 41664,
      "byteOffset": 4971744,
      "byteStride": 16,
      "name": "floatBufferViews",
      "target": 34962
    }
  ],
  "buffers": [
    {
      "byteLength": 5013408,
      "uri": "scene.bin"
    }
  ],
  "extensionsUsed": [
    "KHR_materials_emissive_strength"
  ],
  "images": [
    {
      "uri": "textures/Material.002_metallicRoughness.png"
    },
    {
      "uri": "textures/Material.002_normal.png"
    }
  ],
  "materials": [
    {
      "doubleSided": true,
      "name": "Material",
      "pbrMetallicRoughness": {
        "baseColorFactor": [
          1.0,
          0.254448,
          0.0618169,
          1.0
        ],
        "roughnessFactor": 0.0
      }
    },
    {
      "doubleSided": true,
      "emissiveFactor": [
        0.08427965012361123,
        0.9544796901331943,
        0.0
      ],
      "extensions": {
        "KHR_materials_emissive_strength": {
          "emissiveStrength": 6.920194393897972
        }
      },
      "name": "Material.002",
      "normalTexture": {
        "index": 1
      },
      "pbrMetallicRoughness": {
        "baseColorFactor": [
          0.15121481127434538,
          0.8712196865111728,
          0.020716330455307016,
          1.0
        ],
        "metallicRoughnessTexture": {
          "index": 0
        }
      }
    }
  ],
  "meshes": [
    {
      "name": "Object_0",
      "primitives": [
        {
          "attributes": {
            "NORMAL": 1,
            "POSITION": 0
          },
          "indices": 2,
          "material": 0,
          "mode": 4
        }
      ]
    },
    {
      "name": "Object_1",
      "primitives": [
        {
          "attributes": {
            "NORMAL": 4,
            "POSITION": 3
          },
          "indices": 5,
          "material": 0,
          "mode": 4
        }
      ]
    },
    {
      "name": "Object_2",
      "primitives": [
        {
          "attributes": {
            "NORMAL": 7,
            "POSITION": 6,
            "TANGENT": 8,
            "TEXCOORD_0": 9,
            "TEXCOORD_1": 10,
            "TEXCOORD_2": 11,
            "TEXCOORD_3": 12
          },
          "indices": 13,
          "material": 1,
          "mode": 4
        }
      ]
    }
  ],
  "nodes": [
    {
      "children": [
        1
      ],
      "matrix": [
        1.0,
        0.0,
        0.0,
        0.0,
        0.0,
        2.220446049250313e-16,
        -1.0,
        0.0,
        0.0,
        1.0,
        2.220446049250313e-16,
        0.0,
        0.0,
        0.0,
        0.0,
        1.0
      ],
      "name": "Sketchfab_model"
    },
    {
      "children": [
        2
      ],
      "name": "root"
    },
    {
      "children": [
        3,
        6
      ],
      "matrix": [
        1.0,
        0.0,
        0.0,
        0.0,
        0.0,
        2.220446049250313e-16,
        1.0,
        0.0,
        0.0,
        -1.0,
        2.220446049250313e-16,
        0.0,
        0.0,
        0.0,
        0.0,
        1.0
      ],
      "name": "GLTF_SceneRootNode"
    },
    {
      "children": [
        4,
        5
      ],
      "matrix": [
        1.0,
        0.0,
        0.0,
        0.0,
        0.0,
        0.0,
        1.0,
        0.0,
        0.0,
        -1.0,
        0.0,
        0.0,
        0.0,
        0.12603256106376648,
        -0.3544493019580841,
        1.0
      ],
      "name": "Text_0"
    },
    {
      "mesh": 0,
      "name": "Object_4"
    },
    {
      "mesh": 1,
      "name": "Object_5"
    },
    {
      "children": [
        7
      ],
      "matrix": [
        0.35934391617774963,
        0.0,
        0.0,
        0.0,
        0.0,
        -3.029042643914032e-08,
        0.3593439161777484,
        0.0,
        0.0,
        -0.3593439161777484,
        -3.029042643914032e-08,
        0.0,
        0.13567668199539185,
        0.7996282577514648,
        -0.31914642453193665,
        1.0
      ],
      "name": "Text.001_1"
    },
    {
      "mesh": 2,
      "name": "Object_7"
    }
  ],
  "samplers": [
    {
      "magFilter": 9729,
      "minFilter": 9987,
      "wrapS": 10497,
      "wrapT": 10497
    }
  ],
  "scene": 0,
  "scenes": [
    {
      "name": "Sketchfab_Scene",
      "nodes": [
        0
      ]
    }
  ],
  "textures": [
    {
      "sampler": 0,
      "source": 0
    },
    {
      "sampler": 0,
      "source": 1
    }
  ]
}
