{
  "accessors": [
    {
      "bufferView": 3,
      "componentType": 5126,
      "count": 5223,
      "max": [0.8747734427452087, 0.16673040390014648, 0.041474781930446625],
      "min": [-0.3959117531776428, -0.13859950006008148, -0.04780636727809906],
      "type": "VEC3"
    },
    {
      "bufferView": 3,
      "byteOffset": 62676,
      "componentType": 5126,
      "count": 5223,
      "max": [1.0, 1.0, 1.0],
      "min": [-1.0, -1.0, -1.0],
      "type": "VEC3"
    },
    {
      "bufferView": 4,
      "componentType": 5126,
      "count": 5223,
      "max": [1.0, 1.0, 1.0, 1.0],
      "min": [-1.0, -1.0, -1.0, -1.0],
      "type": "VEC4"
    },
    {
      "bufferView": 2,
      "componentType": 5126,
      "count": 5223,
      "max": [1.9951171875, 0.9931640625],
      "min": [0.007717132568359375, 0.00606536865234375],
      "type": "VEC2"
    },
    {
      "bufferView": 1,
      "componentType": 5125,
      "count": 20709,
      "type": "SCALAR"
    },
    {
      "bufferView": 3,
      "byteOffset": 125352,
      "componentType": 5126,
      "count": 901,
      "max": [0.39025434851646423, 0.09002194553613663, 0.029713371768593788],
      "min": [0.17008882761001587, -0.23141026496887207, -0.029713371768593788],
      "type": "VEC3"
    },
    {
      "bufferView": 3,
      "byteOffset": 136164,
      "componentType": 5126,
      "count": 901,
      "max": [0.9997212290763855, 1.0, 1.0],
      "min": [-1.0, -0.9403663277626038, -1.0],
      "type": "VEC3"
    },
    {
      "bufferView": 4,
      "byteOffset": 83568,
      "componentType": 5126,
      "count": 901,
      "max": [1.0, 0.9994425177574158, 1.0, 1.0],
      "min": [-1.0, -0.9995972514152527, -1.0, -1.0],
      "type": "VEC4"
    },
    {
      "bufferView": 2,
      "byteOffset": 41784,
      "componentType": 5126,
      "count": 901,
      "max": [1.99609375, 0.994140625],
      "min": [0.147216796875, 0.00565338134765625],
      "type": "VEC2"
    },
    {
      "bufferView": 2,
      "byteOffset": 48992,
      "componentType": 5126,
      "count": 901,
      "max": [0.98974609375, 0.9892578125],
      "min": [0.00806427001953125, 0.00806427001953125],
      "type": "VEC2"
    },
    {
      "bufferView": 2,
      "byteOffset": 56200,
      "componentType": 5126,
      "count": 901,
      "max": [0.98876953125, 0.97119140625],
      "min": [0.00806427001953125, 0.00806427001953125],
      "type": "VEC2"
    },
    {
      "bufferView": 2,
      "byteOffset": 63408,
      "componentType": 5126,
      "count": 901,
      "max": [1.99609375, 0.994140625],
      "min": [0.147216796875, 0.00565338134765625],
      "type": "VEC2"
    },
    {
      "bufferView": 1,
      "byteOffset": 82836,
      "componentType": 5125,
      "count": 3672,
      "type": "SCALAR"
    },
    {
      "bufferView": 5,
      "componentType": 5126,
      "count": 16,
      "max": [
        1.0, 7.673853019696253e-8, 1.0, 0.0, 0.4567241072654724,
        1.0000003576278687, 1.0000003576278687, 0.0, 0.642340362071991,
        1.7881397695873602e-7, 1.0, 0.0, 0.6322399377822876,
        0.0019599974621087313, 0.20282012224197388, 1.0
      ],
      "min": [
        -1.1920930376163597e-7, -0.10787899792194366, -0.780743420124054, 0.0,
        -2.8547468833295397e-9, -1.192093321833454e-7, 0.0, 0.0,
        -1.0000001192092896, -1.0000001192092896, -1.1920930376163597e-7, 0.0,
        -0.8821399211883545, -0.11755995452404022, -0.46612992882728577, 1.0
      ],
      "type": "MAT4"
    },
    {
      "bufferView": 0,
      "componentType": 5123,
      "count": 5223,
      "type": "VEC4"
    },
    {
      "bufferView": 4,
      "byteOffset": 97984,
      "componentType": 5126,
      "count": 5223,
      "max": [1.0, 0.0, 0.0, 0.0],
      "min": [1.0, 0.0, 0.0, 0.0],
      "type": "VEC4"
    }
  ],
  "asset": {
    "extras": {
      "author": "ILilMitch (https://sketchfab.com/ILilMitch)",
      "license": "CC-BY-4.0 (http://creativecommons.org/licenses/by/4.0/)",
      "source": "https://sketchfab.com/3d-models/reaver-vandal-white-04f9851ace5c424492c327608b895e2c",
      "title": "Reaver Vandal (White)"
    },
    "generator": "Sketchfab-15.68.0",
    "version": "2.0"
  },
  "bufferViews": [
    {
      "buffer": 0,
      "byteLength": 41784,
      "byteStride": 8,
      "name": "shortBufferViews",
      "target": 34962
    },
    {
      "buffer": 0,
      "byteLength": 97524,
      "byteOffset": 41784,
      "name": "floatBufferViews",
      "target": 34963
    },
    {
      "buffer": 0,
      "byteLength": 70616,
      "byteOffset": 139308,
      "byteStride": 8,
      "name": "floatBufferViews",
      "target": 34962
    },
    {
      "buffer": 0,
      "byteLength": 146976,
      "byteOffset": 209924,
      "byteStride": 12,
      "name": "floatBufferViews",
      "target": 34962
    },
    {
      "buffer": 0,
      "byteLength": 181552,
      "byteOffset": 356900,
      "byteStride": 16,
      "name": "floatBufferViews",
      "target": 34962
    },
    {
      "buffer": 0,
      "byteLength": 1024,
      "byteOffset": 538452,
      "name": "floatBufferViews"
    }
  ],
  "buffers": [
    {
      "byteLength": 539476,
      "uri": "reaver.bin"
    }
  ],
  "images": [
    {
      "uri": "textures/AK_Soulstealer_MI_baseColor.png"
    },
    {
      "uri": "textures/AK_Soulstealer_MI_normal.png"
    }
  ],
  "materials": [
    {
      "doubleSided": true,
      "name": "AK_Soulstealer_MI",
      "normalTexture": {
        "index": 1
      },
      "pbrMetallicRoughness": {
        "baseColorTexture": {
          "index": 0
        },
        "roughnessFactor": 0.0
      }
    }
  ],
  "meshes": [
    {
      "name": "Object_0",
      "primitives": [
        {
          "attributes": {
            "JOINTS_0": 14,
            "NORMAL": 1,
            "POSITION": 0,
            "TANGENT": 2,
            "TEXCOORD_0": 3,
            "TEXCOORD_1": 3,
            "WEIGHTS_0": 15
          },
          "indices": 4,
          "material": 0,
          "mode": 4
        }
      ]
    },
    {
      "name": "Object_1",
      "primitives": [
        {
          "attributes": {
            "NORMAL": 6,
            "POSITION": 5,
            "TANGENT": 7,
            "TEXCOORD_0": 8,
            "TEXCOORD_1": 9,
            "TEXCOORD_2": 10,
            "TEXCOORD_3": 11
          },
          "indices": 12,
          "material": 0,
          "mode": 4
        }
      ]
    }
  ],
  "nodes": [
    {
      "children": [1],
      "matrix": [
        1.0, 0.0, 0.0, 0.0, 0.0, 2.220446049250313e-16, -1.0, 0.0, 0.0, 1.0,
        2.220446049250313e-16, 0.0, 0.0, 0.0, 0.0, 1.0
      ],
      "name": "Sketchfab_model"
    },
    {
      "children": [2],
      "name": "root"
    },
    {
      "children": [3, 22],
      "matrix": [
        1.0, 0.0, 0.0, 0.0, 0.0, 2.220446049250313e-16, 1.0, 0.0, 0.0, -1.0,
        2.220446049250313e-16, 0.0, 0.0, 0.0, 0.0, 1.0
      ],
      "name": "GLTF_SceneRootNode"
    },
    {
      "children": [4],
      "matrix": [
        1.0, 0.0, 0.0, 0.0, 0.0, 1.0, 0.0, 0.0, 0.0, 0.0, 1.0, 0.0,
        91.18424224853516, 0.35945770144462585, 21.81796646118164, 1.0
      ],
      "name": "GN_AK_Soulstealer_Skelmesh_mo_0"
    },
    {
      "children": [5, 6],
      "name": "GLTF_created_0"
    },
    {
      "children": [7],
      "name": "GLTF_created_0_rootJoint"
    },
    {
      "mesh": 0,
      "name": "Object_6",
      "skin": 0
    },
    {
      "children": [8],
      "name": "Skeleton_1",
      "rotation": [
        2.107342389479072e-8, 0.7071068286895752, 1.0536709993402837e-7,
        0.7071067094802856
      ]
    },
    {
      "children": [9, 10, 11, 12, 13, 14, 15, 16, 17, 18, 19, 20, 21],
      "name": "Root_2"
    },
    {
      "name": "Muzzle_3",
      "rotation": [
        -0.5, -0.4999999403953552, -0.5000001192092896, 0.4999999403953552
      ],
      "translation": [
        -1.4519591218231653e-7, 0.08913994580507278, 0.882140040397644
      ]
    },
    {
      "name": "Magazine_Main_4",
      "rotation": [
        -0.5, -0.4999999403953552, -0.5000000596046448, 0.4999999701976776
      ],
      "translation": [
        -7.904373688916166e-8, -0.06463003158569336, 0.2828100025653839
      ]
    },
    {
      "name": "Bullet_5",
      "rotation": [
        -0.4999999701976776, -0.4999999701976776, -0.5000001192092896,
        0.49999991059303284
      ],
      "translation": [
        -0.001960023073479533, 0.08262002468109131, 0.21969999372959137
      ]
    },
    {
      "name": "Ejection_Button_6",
      "translation": [
        -2.592680736768216e-8, 0.010479986667633057, 0.1706399917602539
      ]
    },
    {
      "name": "Stat_Track_7",
      "rotation": [
        -0.4999999701976776, -0.5, -0.5000001192092896, 0.49999991059303284
      ],
      "translation": [
        0.018560005351901054, 0.12511004507541656, 0.08748999238014221
      ]
    },
    {
      "name": "Reflex_8",
      "rotation": [
        -0.4999999701976776, -0.4999999701976776, -0.5000001192092896,
        0.4999999403953552
      ],
      "translation": [
        -0.00010000425390899181, 0.13913004100322723, 0.1664399653673172
      ]
    },
    {
      "name": "Ejection_9",
      "rotation": [
        -0.2656458020210266, -0.9054303169250488, -0.036962077021598816,
        0.3290320634841919
      ],
      "translation": [
        -0.0259100291877985, 0.1088300421833992, 0.24995000660419464
      ]
    },
    {
      "name": "Charging_Handle_10",
      "translation": [
        0.03075997345149517, 0.1175599917769432, 0.2993299961090088
      ]
    },
    {
      "name": "Underbarrel_11",
      "rotation": [
        -0.5, -0.4999999403953552, -0.5000001192092896, 0.4999999403953552
      ],
      "translation": [
        -7.445652983051332e-8, 0.053389981389045715, 0.44380998611450195
      ]
    },
    {
      "name": "Trigger_12",
      "translation": [
        -6.613129155397246e-9, 0.04376000910997391, 0.08861999213695526
      ]
    },
    {
      "name": "Gun_Buddy_13",
      "rotation": [
        -0.4999999701976776, -0.4999999701976776, -0.5000001192092896,
        0.49999991059303284
      ],
      "translation": [
        0.03507665544748306, 0.07784585654735565, 0.2189520001411438
      ]
    },
    {
      "name": "Magazine_Extra_14",
      "rotation": [
        -0.5000000596046448, -0.49999991059303284, -0.5000001192092896,
        0.4999999403953552
      ],
      "translation": [
        9.547367341156132e-8, -0.2028200477361679, -0.6322399973869324
      ]
    },
    {
      "name": "Left_Hand_Target_15",
      "translation": [
        -6.639532301733198e-8, 0.053389981389045715, 0.46612998843193054
      ]
    },
    {
      "children": [23],
      "matrix": [
        1.0, 0.0, 0.0, 0.0, 0.0, 1.0, 0.0, 0.0, 0.0, 0.0, 1.0, 0.0,
        91.18424224853516, 0.35945770144462585, 21.81796646118164, 1.0
      ],
      "name": "GN_AK_Magazine_Soulstealer_Staticmesh_mo_16"
    },
    {
      "mesh": 1,
      "name": "Object_23"
    }
  ],
  "samplers": [
    {
      "magFilter": 9729,
      "minFilter": 9987,
      "wrapS": 10497,
      "wrapT": 10497
    }
  ],
  "scene": 0,
  "scenes": [
    {
      "name": "Sketchfab_Scene",
      "nodes": [0]
    }
  ],
  "skins": [
    {
      "inverseBindMatrices": 13,
      "joints": [5, 7, 8, 9, 10, 11, 12, 13, 14, 15, 16, 17, 18, 19, 20, 21],
      "skeleton": 5
    }
  ],
  "textures": [
    {
      "sampler": 0,
      "source": 0
    },
    {
      "sampler": 0,
      "source": 1
    }
  ]
}
